<svg xmlns="http://www.w3.org/2000/svg" viewBox="0 0 500 500"><g id="freepik--background-simple--inject-36"><path d="M455.59,331.57c-20.14,40.62-55.86,82.72-99.33,90.82-65.67,12.23-80.58,66.85-192.61,46.7A210.74,210.74,0,0,1,116,454.77a180.08,180.08,0,0,1-21.8-11.4c-62-38-87.75-106.93-81.64-174.66,8-89.07,70-123.79,109.91-143.64s96.8-109.76,207.1-90.9a204.46,204.46,0,0,1,49,14.68c35.82,16,70.48,45.55,87.75,84.27q1.95,4.37,3.65,8.88C492.14,200.77,483.05,276.21,455.59,331.57Z" style="fill:#BF455B"></path><path d="M455.59,331.57c-20.14,40.62-55.86,82.72-99.33,90.82-65.67,12.23-80.58,66.85-192.61,46.7A210.74,210.74,0,0,1,116,454.77a180.08,180.08,0,0,1-21.8-11.4c-62-38-87.75-106.93-81.64-174.66,8-89.07,70-123.79,109.91-143.64s96.8-109.76,207.1-90.9a204.46,204.46,0,0,1,49,14.68c35.82,16,70.48,45.55,87.75,84.27q1.95,4.37,3.65,8.88C492.14,200.77,483.05,276.21,455.59,331.57Z" style="fill:#fff;opacity:0.8"></path></g><g id="freepik--Circles--inject-36"><circle cx="444.14" cy="170.25" r="16.56" style="fill:none;stroke:#263238;stroke-miterlimit:10"></circle><circle cx="385.8" cy="464.07" r="16.56" transform="translate(-154.95 732.02) rotate(-76.62)" style="fill:none;stroke:#263238;stroke-miterlimit:10"></circle><circle cx="104.22" cy="435.27" r="16.56" transform="translate(-286.64 217.21) rotate(-47.38)" style="fill:none;stroke:#263238;stroke-miterlimit:10"></circle><circle cx="257.98" cy="45.3" r="9" transform="translate(39.23 189.37) rotate(-43.33)" style="fill:none;stroke:#263238;stroke-miterlimit:10"></circle><circle cx="51.29" cy="158.01" r="9" transform="translate(-96.7 82.55) rotate(-45)" style="fill:none;stroke:#263238;stroke-miterlimit:10"></circle><circle cx="245.01" cy="300.6" r="9" transform="translate(-103.99 469.67) rotate(-76.67)" style="fill:none;stroke:#263238;stroke-miterlimit:10"></circle><circle cx="73.62" cy="47.1" r="9" transform="translate(-11.75 65.85) rotate(-45)" style="fill:none;stroke:#263238;stroke-miterlimit:10"></circle><path d="M455.06,253.07a6.61,6.61,0,1,1-6.6-6.61A6.61,6.61,0,0,1,455.06,253.07Z" style="fill:none;stroke:#263238;stroke-miterlimit:10"></path><path d="M457.82,438.15a6.61,6.61,0,1,1-6.6-6.61A6.61,6.61,0,0,1,457.82,438.15Z" style="fill:none;stroke:#263238;stroke-miterlimit:10"></path></g><g id="freepik--coffee-cup-1--inject-36"><path d="M81.49,113.31,79.82,371.57C79,379,107,395.43,142.1,399.4s63.86-6.06,64.7-13.46l56.1-252.1Z" style="fill:#BF455B;stroke:#263238;stroke-miterlimit:10"></path><path d="M80.28,300.62c74.67-23.2,127-51.79,162.76-77.52l18.7-84c-7.48,9.17-21.65,24.32-45.16,41.58-41.33,30.33-90.48,52-136,67.28Z" style="fill:#263238"></path><path d="M228.48,288.49a289.64,289.64,0,0,1-26.59,21.95c-37.12,27.23-80.54,47.47-121.95,62.38,2,7.87,29,22.82,62.16,26.58,1.44.17,2.87.3,4.29.41a508.52,508.52,0,0,0,65.22-35.49Z" style="fill:#263238"></path><path d="M88.51,114.1c-2.36.87-4.7,1.72-7,2.56l-.35,53.05c41.77-13.76,76.16-29.18,104.29-44.64Z" style="fill:#263238"></path><path d="M72.06,103l-.88,7.76c-1.41,12.51,42.73,27.78,98.6,34.1s102.31,1.31,103.73-11.2l.87-7.76Z" style="fill:#dedede;stroke:#263238;stroke-miterlimit:10"></path><ellipse cx="173.22" cy="114.48" rx="22.8" ry="101.81" transform="translate(39.99 273.73) rotate(-83.54)" style="fill:#fff;stroke:#263238;stroke-miterlimit:10"></ellipse><path d="M75.24,91.29l-.86,7.62c-1.39,12.29,42,27.28,96.81,33.49s100.46,1.29,101.85-11l.87-7.62Z" style="fill:#dedede;stroke:#263238;stroke-miterlimit:10"></path><ellipse cx="174.57" cy="102.54" rx="22.39" ry="99.97" transform="translate(53.05 264.47) rotate(-83.54)" style="fill:#fff;stroke:#263238;stroke-miterlimit:10"></ellipse><path d="M89.06,62.11,85.9,90c-1.19,10.58,37.66,23.66,86.78,29.22s89.92,1.49,91.11-9.09L267,82.25Z" style="fill:#dedede;stroke:#263238;stroke-miterlimit:10"></path><ellipse cx="178.01" cy="72.18" rx="19.27" ry="89.51" transform="translate(86.27 240.94) rotate(-83.54)" style="fill:#fff;stroke:#263238;stroke-miterlimit:10"></ellipse><ellipse cx="178.01" cy="72.18" rx="16.06" ry="74.58" transform="translate(86.27 240.94) rotate(-83.54)" style="fill:#dedede;stroke:#263238;stroke-miterlimit:10"></ellipse><ellipse cx="177.71" cy="74.81" rx="13.41" ry="73.56" transform="translate(83.39 242.98) rotate(-83.54)" style="fill:#fff;stroke:#263238;stroke-miterlimit:10"></ellipse><ellipse cx="196.74" cy="70.04" rx="6.34" ry="26.9" transform="translate(105.01 257.66) rotate(-83.54)" style="fill:#263238"></ellipse><circle cx="158.68" cy="243.21" r="55.74" transform="translate(-28.52 21.2) rotate(-7.02)" style="fill:#fff"></circle><path d="M187.81,246.51c-2.42,21.32-14.2,37.5-33.8,35.28s-26.86-20.55-24.45-41.88,13.59-37.57,33.19-35.35S190.22,225.18,187.81,246.51Z" style="fill:#263238"></path><path d="M160.1,275.09c.59-5.88.73-11.23-.75-16.3s-4-10.19-5.56-16.09c-.4-1.45-.69-2.95-1-4.44a36.72,36.72,0,0,1-.37-4.56,37.19,37.19,0,0,1,.91-8.94,27.92,27.92,0,0,1,3.45-8.61c1.79-2.66,4-5.41,7.5-6.8a17.79,17.79,0,0,0-2.81,7.92,46.17,46.17,0,0,0-.4,8c.13,2.67.22,5.44.61,8a55.92,55.92,0,0,0,1.56,7.81c1.29,5.18,3.42,10.84,3.49,17.06A24.72,24.72,0,0,1,160.1,275.09Z" style="fill:#fff"></path></g><g id="freepik--coffee-cup-2--inject-36"><path d="M239.29,192l93.63,240.69c1.95,7.19,34.1,12.16,68.16,2.92s57.14-29.17,55.19-36.36l-40.78-255Z" style="fill:#BF455B;stroke:#263238;stroke-miterlimit:10"></path><polygon points="328.66 421.73 437.9 284.38 415.49 144.21 382.33 153.2 276.14 286.71 328.66 421.73" style="fill:#fff"></polygon><polygon points="419.46 267.88 423.66 258.02 413.79 253.85 415.5 243.28 404.92 241.62 404.03 230.94 393.36 231.86 389.95 221.7 379.81 225.14 374.08 216.08 365.05 221.85 357.31 214.44 349.94 222.21 340.65 216.87 335.33 226.17 325.04 223.19 322.1 233.49 311.39 233.08 311.03 243.79 300.53 245.95 302.73 256.44 293.05 261.03 297.68 270.69 289.38 277.47 296.21 285.74 289.79 294.32 298.39 300.7 294.19 310.57 304.07 314.73 302.35 325.31 312.94 326.96 313.82 337.64 324.5 336.72 327.9 346.88 338.05 343.44 343.78 352.5 352.81 346.73 360.55 354.15 367.92 346.37 377.21 351.71 382.53 342.41 392.82 345.39 395.75 335.09 406.46 335.5 406.83 324.79 417.32 322.63 415.13 312.15 424.81 307.55 420.17 297.89 428.47 291.11 421.65 282.85 428.07 274.27 419.46 267.88" style="fill:#263238"></polygon><circle cx="358.93" cy="284.29" r="58.29" transform="translate(-15.42 547.94) rotate(-73.54)" style="fill:#fff"></circle><path d="M371.9,332.13a49.57,49.57,0,1,1,34.87-60.81A49.62,49.62,0,0,1,371.9,332.13Z" style="fill:#263238"></path><path d="M239.29,192l93.63,240.69c1.95,7.19,34.1,12.16,68.16,2.92s57.14-29.17,55.19-36.36l-40.78-255Z" style="fill:none;stroke:#263238;stroke-miterlimit:10"></path><path d="M390,276.42a1.51,1.51,0,0,0-1.56-.51l-5.63,1.53c-.06-.21-.1-.42-.16-.63a24.79,24.79,0,0,0-1-3L327.9,288.37a26.52,26.52,0,0,0,.63,3.12c2.77,10.19,11.51,17.25,21.8,18.83a2.44,2.44,0,0,0-.37,1.87c.69,2.56,6.78,3.13,13.59,1.29s11.78-5.42,11.09-8a2.45,2.45,0,0,0-1.27-1.42,28.58,28.58,0,0,0,5.56-6c.49-.09,1-.21,1.54-.35a15.59,15.59,0,0,0,9.94-7.54C394.68,282.36,390.21,276.66,390,276.42Zm-2.24,12.3a12.29,12.29,0,0,1-6.73,5.6,25.43,25.43,0,0,0,2.31-13.92l4.82-1.3C389,280.61,390.26,284.18,387.78,288.72Z" style="fill:#BF455B"></path><path d="M338.48,283.5a1,1,0,0,1-1.08-.38,16.15,16.15,0,0,1-2.43-10,31.66,31.66,0,0,1,2.26-8.72,22.66,22.66,0,0,0,1.59-5.58c.28-3.63-1.61-7.83-1.63-7.87a1,1,0,1,1,1.82-.83,20.68,20.68,0,0,1,1.8,8.86,24,24,0,0,1-1.7,6.12,29.55,29.55,0,0,0-2.15,8.16A14.38,14.38,0,0,0,339,282a1,1,0,0,1-.23,1.4A1,1,0,0,1,338.48,283.5Z" style="fill:#BF455B"></path><path d="M352.87,279.6a1,1,0,0,1-1.07-.38,16.15,16.15,0,0,1-2.44-10,31.48,31.48,0,0,1,2.27-8.72,22.66,22.66,0,0,0,1.59-5.58c.28-3.64-1.61-7.83-1.63-7.87a1,1,0,1,1,1.82-.84c.08.19,2.13,4.71,1.8,8.86a24.17,24.17,0,0,1-1.7,6.12,29.18,29.18,0,0,0-2.15,8.17,14.3,14.3,0,0,0,2.07,8.67,1,1,0,0,1-.24,1.39A.88.88,0,0,1,352.87,279.6Z" style="fill:#BF455B"></path><path d="M368,275.48a1,1,0,0,1-1.07-.38,16,16,0,0,1-2.44-10,31.15,31.15,0,0,1,2.27-8.71,22.79,22.79,0,0,0,1.58-5.59c.29-3.63-1.61-7.82-1.63-7.87a1,1,0,0,1,.5-1.32,1,1,0,0,1,1.32.49,20.79,20.79,0,0,1,1.81,8.86,23.8,23.8,0,0,1-1.71,6.12,29.51,29.51,0,0,0-2.14,8.17,14.36,14.36,0,0,0,2.06,8.67,1,1,0,0,1-.23,1.39A1,1,0,0,1,368,275.48Z" style="fill:#BF455B"></path><path d="M226.73,185.91l2.05,7.54c3.29,12.15,50,10.07,104.22-4.64s95.59-36.5,92.3-48.65l-2.05-7.54Z" style="fill:#263238"></path><ellipse cx="324.99" cy="159.26" rx="101.81" ry="22.8" transform="translate(-30.35 90.6) rotate(-15.17)" style="fill:#8a8a8a;stroke:#263238;stroke-miterlimit:10"></ellipse><path d="M225.37,173.83l2,7.4c3.24,11.93,49.06,9.89,102.34-4.56s93.86-35.83,90.63-47.76l-2-7.4Z" style="fill:#263238"></path><ellipse cx="321.85" cy="147.67" rx="99.97" ry="22.39" transform="translate(-27.43 89.37) rotate(-15.17)" style="fill:#8a8a8a;stroke:#263238;stroke-miterlimit:10"></ellipse><path d="M227.46,141.6l7.35,27.12c2.79,10.27,43.73,8.11,91.44-4.82s84.13-31.76,81.35-42l-7.35-27.12Z" style="fill:#263238"></path><ellipse cx="313.85" cy="118.18" rx="89.51" ry="19.27" transform="translate(-19.99 86.25) rotate(-15.17)" style="fill:#8a8a8a;stroke:#263238;stroke-miterlimit:10"></ellipse><path d="M385.83,98.66c2.32,8.56-28,24.24-67.77,35s-73.87,12.58-76.19,4,28-24.24,67.78-35S383.51,90.1,385.83,98.66Z" style="fill:#263238"></path><ellipse cx="314.51" cy="120.58" rx="73.68" ry="13.57" transform="translate(-20.6 86.51) rotate(-15.17)" style="fill:#8a8a8a;stroke:#263238;stroke-miterlimit:10"></ellipse><path d="M356.44,102.25c.92,3.38-10,9.27-24.3,13.16s-26.71,4.3-27.63.92,10-9.27,24.31-13.16S355.53,98.87,356.44,102.25Z" style="fill:#263238"></path></g></svg>
